<?xml version="1.0" standalone="no"?><svg version="1.0" xmlns="http://www.w3.org/2000/svg" width="440" height="440" viewBox="0 0 330 330"><path d="M272.1 29.4c-2.4 6.1-5.6 13.8-7.1 17.1-1.5 3.3-3.9 8.7-5.3 12-1.4 3.3-5.1 11.7-8.1 18.7-3.1 7-5.6 13-5.6 13.3 0 .3-2.3 5.5-5 11.7-2.8 6.1-4.9 11.6-4.7 12.2.2.6-.2 1.5-.9 2.1-1.2 1-3.5 6.2-25 56.9-13.4 31.4-27.5 63.9-28 64.5-.1.2-2-1.3-4.1-3.3-2.1-2-4-3.6-4.3-3.6-.3 0-.4 16.3-.2 36.2l.2 36.3 4.2 4.2c2.3 2.4 4.5 4 4.9 3.5.4-.4 7.7-17.1 16.2-37.2 8.6-20.1 29.8-69.7 47.1-110.3L278 89.9l-.1-21.2c-.1-11.7-.4-27.8-.8-35.8l-.6-14.6-4.4 11.1zM258 27.7c-.8.3-4.2 1.8-7.5 3.3-3.3 1.5-16.8 7.5-30 13.5-13.2 5.9-29.6 13.3-36.5 16.5-6.9 3.1-18.7 8.5-26.2 12-7.6 3.5-13.8 6.6-13.8 6.9 0 .4 11.4 11.8 25.4 25.4l25.4 24.7 13.4-6.4 13.3-6.3 5.4-12.9c2.9-7.1 5.9-14.3 6.7-15.9 6.6-14.6 8.4-19 8.4-20.4 0-1 .5-2.2 1.1-2.8 1.2-1.2 17.4-38.5 16.6-38.2-.1 0-.9.3-1.7.6zM104 97.7c-15.1 6.8-31.5 14.2-36.4 16.4l-9 3.9-4.4-4.2-4.4-4.3.6 37 .7 37 3.6 3.7c2.1 2.1 4.2 3.8 4.8 3.8.7 0 17.1-7.2 36.6-16 19.4-8.8 35.9-15.9 36.5-15.8.6.2 12.1 11 25.5 24 13.4 13.1 24.6 23.8 24.9 23.8.3 0 4.1-8.4 8.4-18.8 4.4-10.3 9.2-21.5 10.7-25l2.8-6.2-24.7-24.3c-13.6-13.3-30.1-29.5-36.7-35.9l-12-11.6L104 97.7z"/></svg>
