<?xml version="1.0" standalone="no"?>
<!DOCTYPE svg PUBLIC "-//W3C//DTD SVG 20010904//EN"
 "http://www.w3.org/TR/2001/REC-SVG-20010904/DTD/svg10.dtd">
<svg version="1.0" xmlns="http://www.w3.org/2000/svg"
 width="330.000000pt" height="330.000000pt" viewBox="0 0 330.000000 330.000000"
 preserveAspectRatio="xMidYMid meet">
<metadata>
Created by potrace 1.11, written by Peter Selinger 2001-2013
</metadata>
<g transform="translate(0.000000,330.000000) scale(0.100000,-0.100000)"
fill="#000000" stroke="none">
<path d="M2812 3147 c-39 -96 -396 -933 -422 -992 -17 -36 -534 -1241 -547
-1273 -4 -9 -19 0 -49 29 -24 24 -46 41 -49 38 -2 -3 -2 -181 2 -397 l6 -391
43 -42 c24 -24 45 -41 47 -38 2 2 20 42 39 89 20 47 248 580 506 1186 l471
1100 -7 386 -7 386 -33 -81z"/>
<path d="M2445 3029 c-121 -55 -283 -129 -360 -163 -263 -119 -605 -275 -634
-290 l-28 -15 264 -263 c145 -145 271 -264 281 -266 10 -2 78 26 152 61 l135
64 54 129 c29 71 62 148 72 171 16 36 75 173 259 606 16 37 28 67 27 67 -1 -1
-101 -46 -222 -101z"/>
<path d="M900 2324 l-384 -174 -49 47 -48 48 7 -395 6 -395 42 -43 c29 -31 47
-41 61 -38 11 3 188 82 394 175 l374 170 267 -259 c147 -143 270 -260 273
-260 3 0 46 96 95 213 50 116 102 238 116 269 l25 57 -390 378 c-214 208 -393
379 -397 380 -4 1 -180 -77 -392 -173z"/>
</g>
</svg>
