<?xml version="1.0" standalone="no"?>
<!DOCTYPE svg PUBLIC "-//W3C//DTD SVG 20010904//EN"
 "http://www.w3.org/TR/2001/REC-SVG-20010904/DTD/svg10.dtd">
<svg version="1.0" xmlns="http://www.w3.org/2000/svg"
 width="330.000000pt" height="330.000000pt" viewBox="0 0 330.000000 330.000000"
 preserveAspectRatio="xMidYMid meet">
<metadata>
Created by potrace 1.11, written by Peter Selinger 2001-2013
</metadata>
<g transform="translate(0.000000,330.000000) scale(0.100000,-0.100000)"
fill="#000000" stroke="none">
<path d="M2721 3006 c-24 -61 -56 -138 -71 -171 -15 -33 -39 -87 -53 -120 -14
-33 -51 -117 -81 -187 -31 -70 -56 -130 -56 -133 0 -3 -23 -55 -50 -117 -28
-61 -49 -116 -47 -122 2 -6 -2 -15 -9 -21 -12 -10 -35 -62 -250 -569 -134
-314 -275 -639 -280 -645 -1 -2 -20 13 -41 33 -21 20 -40 36 -43 36 -3 0 -4
-163 -2 -362 l2 -363 42 -42 c23 -24 45 -40 49 -35 4 4 77 171 162 372 86 201
298 697 471 1103 l316 738 -1 212 c-1 117 -4 278 -8 358 l-6 146 -44 -111z"/>
<path d="M2580 3023 c-8 -3 -42 -18 -75 -33 -33 -15 -168 -75 -300 -135 -132
-59 -296 -133 -365 -165 -69 -31 -187 -85 -262 -120 -76 -35 -138 -66 -138
-69 0 -4 114 -118 254 -254 l254 -247 134 64 133 63 54 129 c29 71 59 143 67
159 66 146 84 190 84 204 0 10 5 22 11 28 12 12 174 385 166 382 -1 0 -9 -3
-17 -6z"/>
<path d="M1040 2323 c-151 -68 -315 -142 -364 -164 l-90 -39 -44 42 -44 43 6
-370 7 -370 36 -37 c21 -21 42 -38 48 -38 7 0 171 72 366 160 194 88 359 159
365 158 6 -2 121 -110 255 -240 134 -131 246 -238 249 -238 3 0 41 84 84 188
44 103 92 215 107 250 l28 62 -247 243 c-136 133 -301 295 -367 359 l-120 116
-275 -125z"/>
</g>
</svg>
