<svg width="256" height="256" viewBox="0 0 256 256" fill="none" xmlns="http://www.w3.org/2000/svg">
<mask id="mask0" mask-type="alpha" maskUnits="userSpaceOnUse" x="56" y="32" width="144" height="144">
<path d="M56 32H200V176H56V32Z" fill="white"/>
</mask>
<g mask="url(#mask0)">
<path fill-rule="evenodd" clip-rule="evenodd" d="M128 32C108.446 32 105.994 32.0829 98.3145 32.4333C90.6509 32.7829 85.417 34.0003 80.8373 35.7805C76.1026 37.6204 72.0874 40.0827 68.0844 44.0858C64.0817 48.0893 61.6198 52.105 59.78 56.8402C58.0001 61.4205 56.7828 66.6551 56.4333 74.3195C56.0829 82 56 84.4522 56 104.009C56 123.565 56.0829 126.017 56.4333 133.698C56.7828 141.362 58.0001 146.597 59.78 151.177C61.6198 155.912 64.0817 159.928 68.0844 163.931C72.0874 167.934 76.1026 170.397 80.8373 172.237C85.417 174.017 90.6509 175.234 98.3145 175.584C105.994 175.934 108.446 176.017 128 176.017C147.554 176.017 150.006 175.934 157.686 175.584C165.349 175.234 170.583 174.017 175.163 172.237C179.897 170.397 183.913 167.934 187.916 163.931C191.918 159.928 194.38 155.912 196.22 151.177C198 146.597 199.217 141.362 199.567 133.698C199.917 126.017 200 123.565 200 104.009C200 84.4522 199.917 82 199.567 74.3195C199.217 66.6551 198 61.4205 196.22 56.8402C194.38 52.105 191.918 48.0893 187.916 44.0858C183.913 40.0827 179.897 37.6204 175.163 35.7805C170.583 34.0003 165.349 32.7829 157.686 32.4333C150.006 32.0829 147.554 32 128 32ZM128 44.9745C147.225 44.9745 149.502 45.048 157.094 45.3944C164.114 45.7145 167.926 46.8876 170.464 47.8738C173.824 49.18 176.223 50.7404 178.742 53.2604C181.262 55.78 182.822 58.1788 184.128 61.54C185.114 64.0774 186.287 67.8902 186.607 74.9109C186.954 82.5039 187.027 84.7815 187.027 104.009C187.027 123.236 186.954 125.513 186.607 133.106C186.287 140.127 185.114 143.94 184.128 146.477C182.822 149.838 181.262 152.237 178.742 154.757C176.223 157.277 173.824 158.837 170.464 160.143C167.926 161.13 164.114 162.303 157.094 162.623C149.503 162.969 147.226 163.043 128 163.043C108.774 163.043 106.497 162.969 98.9058 162.623C91.8859 162.303 88.0735 161.13 85.5365 160.143C82.1757 158.837 79.7772 157.277 77.2578 154.757C74.7385 152.237 73.178 149.838 71.8719 146.477C70.8858 143.94 69.7129 140.127 69.3928 133.106C69.0464 125.513 68.9729 123.236 68.9729 104.009C68.9729 84.7815 69.0464 82.5039 69.3928 74.9109C69.7129 67.8902 70.8858 64.0774 71.8719 61.54C73.178 58.1788 74.7382 55.78 77.2578 53.2604C79.7772 50.7404 82.1757 49.18 85.5365 47.8738C88.0735 46.8876 91.8859 45.7145 98.9058 45.3944C106.498 45.048 108.775 44.9745 128 44.9745Z" fill="white"/>
</g>
<path fill-rule="evenodd" clip-rule="evenodd" d="M128 128.011C114.745 128.011 104 117.265 104 104.009C104 90.7521 114.745 80.0057 128 80.0057C141.255 80.0057 152 90.7521 152 104.009C152 117.265 141.255 128.011 128 128.011ZM128 67.0312C107.581 67.0312 91.0273 83.5864 91.0273 104.009C91.0273 124.431 107.581 140.986 128 140.986C148.42 140.986 164.973 124.431 164.973 104.009C164.973 83.5864 148.42 67.0312 128 67.0312Z" fill="white"/>
<path fill-rule="evenodd" clip-rule="evenodd" d="M175.073 65.5703C175.073 70.3426 171.205 74.2112 166.433 74.2112C161.662 74.2112 157.793 70.3426 157.793 65.5703C157.793 60.7979 161.662 56.9291 166.433 56.9291C171.205 56.9291 175.073 60.7979 175.073 65.5703Z" fill="white"/>
<path d="M31.599 208.484L30.591 213.552H32.887V216.548H30.003L29.107 221H25.915L26.811 216.548H24.347L23.451 221H20.231L21.127 216.548H19.783V213.552H21.715L22.723 208.484H20.399V205.488H23.339L24.179 201.26H27.371L26.531 205.488H28.995L29.835 201.26H33.055L32.215 205.488H33.503V208.484H31.599ZM28.407 208.484H25.943L24.935 213.552H27.399L28.407 208.484ZM54.296 216.912H45.56L43.796 221H38.616L47.828 201.26H51.916L61.156 221H56.06L54.296 216.912ZM52.644 213.048L49.928 206.72L47.212 213.048H52.644ZM84.2768 221H78.6208L75.2048 214.7C74.7755 213.972 74.0941 213.608 73.1608 213.608H71.5928V221H66.5248V201.26H75.9328C78.3221 201.26 80.1141 201.783 81.3088 202.828C82.5221 203.855 83.1288 205.348 83.1288 207.308C83.1288 208.801 82.7181 210.071 81.8968 211.116C81.0755 212.143 79.9181 212.833 78.4248 213.188C79.5635 213.431 80.4688 214.168 81.1408 215.4L84.2768 221ZM75.1208 209.744C76.2595 209.744 77.0715 209.567 77.5568 209.212C78.0608 208.857 78.3128 208.279 78.3128 207.476C78.3128 206.655 78.0608 206.067 77.5568 205.712C77.0715 205.339 76.2595 205.152 75.1208 205.152H71.5368V209.744H75.1208ZM108.274 221H102.618L99.2017 214.7C98.7723 213.972 98.091 213.608 97.1577 213.608H95.5897V221H90.5217V201.26H99.9297C102.319 201.26 104.111 201.783 105.306 202.828C106.519 203.855 107.126 205.348 107.126 207.308C107.126 208.801 106.715 210.071 105.894 211.116C105.072 212.143 103.915 212.833 102.422 213.188C103.56 213.431 104.466 214.168 105.138 215.4L108.274 221ZM99.1177 209.744C100.256 209.744 101.068 209.567 101.554 209.212C102.058 208.857 102.31 208.279 102.31 207.476C102.31 206.655 102.058 206.067 101.554 205.712C101.068 205.339 100.256 205.152 99.1177 205.152H95.5337V209.744H99.1177ZM127.49 216.912H118.754L116.99 221H111.81L121.022 201.26H125.11L134.35 221H129.254L127.49 216.912ZM125.838 213.048L123.122 206.72L120.406 213.048H125.838ZM147.169 212.208V221H142.017V212.208L133.729 201.26H139.525L144.565 208.12L149.661 201.26H155.513L147.169 212.208ZM159.696 201.26H173.444V205.292H164.764V208.932H172.884V212.964H164.764V221H159.696V201.26ZM180.083 201.26H194.111V205.236H185.095V208.988H193.551V212.936H185.095V217.024H194.111V221H180.083V201.26ZM207.857 221.252C206.382 221.252 204.926 221.056 203.489 220.664C202.052 220.272 200.885 219.749 199.989 219.096L201.585 215.456C202.537 216.053 203.554 216.511 204.637 216.828C205.72 217.145 206.812 217.304 207.913 217.304C209.033 217.304 209.882 217.155 210.461 216.856C211.058 216.539 211.357 216.1 211.357 215.54C211.357 215.036 211.086 214.625 210.545 214.308C210.022 213.991 209.014 213.673 207.521 213.356C205.673 212.964 204.226 212.497 203.181 211.956C202.136 211.415 201.398 210.78 200.969 210.052C200.558 209.324 200.353 208.428 200.353 207.364C200.353 206.151 200.689 205.068 201.361 204.116C202.052 203.145 203.013 202.389 204.245 201.848C205.496 201.288 206.924 201.008 208.529 201.008C209.948 201.008 211.32 201.213 212.645 201.624C213.989 202.016 215.034 202.529 215.781 203.164L214.213 206.804C212.421 205.572 210.536 204.956 208.557 204.956C207.605 204.956 206.84 205.143 206.261 205.516C205.682 205.871 205.393 206.347 205.393 206.944C205.393 207.299 205.496 207.588 205.701 207.812C205.906 208.036 206.289 208.26 206.849 208.484C207.409 208.689 208.24 208.904 209.341 209.128C211.133 209.52 212.542 209.996 213.569 210.556C214.596 211.097 215.324 211.732 215.753 212.46C216.182 213.188 216.397 214.056 216.397 215.064C216.397 217.005 215.65 218.527 214.157 219.628C212.664 220.711 210.564 221.252 207.857 221.252ZM227.553 205.432H221.645V201.26H238.669V205.432H232.761V221H227.553V205.432Z" fill="white"/>
</svg>
